<svg width="19" height="20" viewBox="0 0 19 20" fill="none" xmlns="http://www.w3.org/2000/svg">
<path d="M1.33333 17.7778C1.33333 19 2.53333 20 4 20H14.6667C16.1333 20 17.3333 19 17.3333 17.7778V6.66667C17.3333 5.44444 16.1333 4.44444 14.6667 4.44444H4C2.53333 4.44444 1.33333 5.44444 1.33333 6.66667V17.7778ZM8.86667 8.16667C9.13333 7.94445 9.54667 7.94445 9.81333 8.16667L14.6667 12.2222H12V16.6667H6.66667V12.2222H4L8.86667 8.16667ZM14 1.11111L13.0533 0.322222C12.8133 0.122222 12.4667 0 12.12 0H6.54667C6.2 0 5.85333 0.122222 5.61333 0.322222L4.66667 1.11111H1.33333C0.6 1.11111 0 1.61111 0 2.22222C0 2.83333 0.6 3.33333 1.33333 3.33333H17.3333C18.0667 3.33333 18.6667 2.83333 18.6667 2.22222C18.6667 1.61111 18.0667 1.11111 17.3333 1.11111H14Z" fill="#E5E5E5"/>
</svg>
